<svg width="144" height="31" viewBox="0 0 144 31" fill="none" xmlns="http://www.w3.org/2000/svg">
<path d="M143.999 1.78548C143.999 2.277 143.822 2.69829 143.471 3.04937C143.123 3.3971 142.705 3.56763 142.214 3.56763C141.722 3.56763 141.294 3.39376 140.95 3.04937C140.602 2.70163 140.432 2.28034 140.432 1.78548C140.432 1.29063 140.606 0.876031 140.95 0.528296C141.301 0.177217 141.722 0 142.214 0C142.705 0 143.12 0.177217 143.471 0.528296C143.822 0.879374 143.999 1.29732 143.999 1.78548ZM140.803 1.78548C140.803 2.16666 140.943 2.49767 141.221 2.77854C141.498 3.0594 141.829 3.19649 142.214 3.19649C142.598 3.19649 142.933 3.05941 143.207 2.78523C143.481 2.51105 143.625 2.17334 143.625 1.78548C143.625 1.39763 143.488 1.05993 143.214 0.78575C142.939 0.511574 142.605 0.374482 142.214 0.374482C141.823 0.374482 141.492 0.514914 141.214 0.792433C140.937 1.06995 140.803 1.39763 140.803 1.78548ZM142.588 2.66151L142.16 2.00951H141.973V2.66151H141.615V0.909461H142.361C142.515 0.909461 142.648 0.962956 142.759 1.07329C142.869 1.18029 142.926 1.31404 142.926 1.46785C142.926 1.58822 142.889 1.69521 142.819 1.78883C142.745 1.8858 142.652 1.94933 142.538 1.97942L142.521 1.99613L142.986 2.64814V2.66486H142.582L142.588 2.66151ZM141.976 1.68518H142.334C142.401 1.68518 142.458 1.66512 142.505 1.62165C142.551 1.58153 142.575 1.52803 142.575 1.46785C142.575 1.32407 142.478 1.25051 142.287 1.25051H141.976V1.68518Z" fill="white"/>
<path d="M125.359 1.98193H128.928V10.7475L128.773 13.385H128.928C129.471 12.4541 130.298 11.6784 131.41 11.0578C132.548 10.4372 133.724 10.127 134.939 10.127C137.267 10.127 139.051 10.7992 140.292 12.1438C141.559 13.4625 142.192 15.3501 142.192 17.8066V29.7526H138.624V18.5047C138.624 15.0915 137.111 13.385 134.086 13.385C132.638 13.385 131.41 13.9926 130.402 15.2079C129.419 16.3973 128.928 17.7936 128.928 19.3968V29.7526H125.359V1.98193Z" fill="white"/>
<path d="M113.782 30.3732C110.963 30.3732 108.623 29.4164 106.762 27.503C104.926 25.5379 104.008 23.1202 104.008 20.2501C104.008 17.3282 104.926 14.9105 106.762 12.9971C108.623 11.0837 110.963 10.127 113.782 10.127C115.721 10.127 117.415 10.6182 118.863 11.6008C120.311 12.5575 121.397 13.8892 122.121 15.5958L118.863 16.9533C117.854 14.5744 116.083 13.385 113.549 13.385C111.92 13.385 110.511 14.0443 109.321 15.363C108.158 16.6818 107.576 18.3108 107.576 20.2501C107.576 22.1894 108.158 23.8184 109.321 25.1371C110.511 26.4558 111.92 27.1152 113.549 27.1152C116.161 27.1152 117.997 25.9257 119.057 23.5469L122.237 24.9044C121.539 26.6109 120.44 27.9555 118.94 28.9381C117.466 29.8948 115.747 30.3732 113.782 30.3732Z" fill="white"/>
<path d="M92.6423 30.3732C89.8497 30.3732 87.5485 29.4164 85.7385 27.503C83.9284 25.5896 83.0234 23.1719 83.0234 20.2501C83.0234 17.354 83.9026 14.9493 85.6609 13.0359C87.4192 11.0966 89.6688 10.127 92.4096 10.127C95.2281 10.127 97.4647 11.0449 99.1196 12.8807C100.8 14.6908 101.641 17.2377 101.641 20.5216L101.602 20.9094H86.6693C86.721 22.7711 87.3416 24.2709 88.531 25.4086C89.7205 26.5463 91.1426 27.1152 92.7975 27.1152C95.0729 27.1152 96.8571 25.9774 98.1499 23.702L101.33 25.2534C100.477 26.8566 99.2876 28.1107 97.7621 29.0157C96.2623 29.9207 94.5558 30.3732 92.6423 30.3732ZM86.9408 17.9617H97.8396C97.7362 16.643 97.1932 15.557 96.2106 14.7037C95.2539 13.8245 93.9611 13.385 92.332 13.385C90.9875 13.385 89.8239 13.7987 88.8413 14.6261C87.8846 15.4535 87.2511 16.5654 86.9408 17.9617Z" fill="white"/>
<path d="M78.1113 30.0629C76.5599 30.0629 75.267 29.5846 74.2327 28.6278C73.2243 27.6711 72.7071 26.3395 72.6813 24.6329V14.0056H69.3457V10.7476H72.6813V4.92969H76.2496V10.7476H80.9039V14.0056H76.2496V23.4693C76.2496 24.7363 76.4952 25.6025 76.9865 26.068C77.4778 26.5075 78.0337 26.7273 78.6543 26.7273C78.9387 26.7273 79.2102 26.7015 79.4688 26.6498C79.7532 26.5722 80.0118 26.4817 80.2445 26.3783L81.3693 29.5587C80.4385 29.8948 79.3525 30.0629 78.1113 30.0629Z" fill="white"/>
<path d="M66.8703 4.19295C66.8703 4.8911 66.6246 5.48582 66.1334 5.9771C65.6421 6.46839 65.0473 6.71403 64.3492 6.71403C63.6511 6.71403 63.0563 6.46839 62.5651 5.9771C62.0738 5.48582 61.8281 4.8911 61.8281 4.19295C61.8281 3.49481 62.0738 2.90009 62.5651 2.40881C63.0563 1.91752 63.6511 1.67188 64.3492 1.67188C65.0473 1.67188 65.6421 1.91752 66.1334 2.40881C66.6246 2.90009 66.8703 3.49481 66.8703 4.19295ZM66.1334 10.7478V29.7528H62.5651V10.7478H66.1334Z" fill="white"/>
<path d="M41.2324 10.7475H44.6456V13.385H44.8007C45.3437 12.4541 46.1711 11.6784 47.283 11.0578C48.4207 10.4372 49.5972 10.127 50.8125 10.127C53.1397 10.127 54.9238 10.7992 56.165 12.1438C57.432 13.4625 58.0655 15.3501 58.0655 17.8066V29.7526H54.4972V18.0393C54.4196 14.9364 52.8552 13.385 49.8041 13.385C48.3819 13.385 47.1925 13.9668 46.2358 15.1303C45.2791 16.268 44.8007 17.6385 44.8007 19.2416V29.7526H41.2324V10.7475Z" fill="white"/>
<path d="M18.8223 20.2501C18.8223 17.3282 19.7402 14.9105 21.5761 12.9971C23.4378 11.0837 25.7779 10.127 28.5963 10.127C31.4147 10.127 33.7419 11.0837 35.5777 12.9971C37.4395 14.9105 38.3703 17.3282 38.3703 20.2501C38.3703 23.1978 37.4395 25.6154 35.5777 27.503C33.7419 29.4164 31.4147 30.3732 28.5963 30.3732C25.7779 30.3732 23.4378 29.4164 21.5761 27.503C19.7402 25.5896 18.8223 23.1719 18.8223 20.2501ZM22.3906 20.2501C22.3906 22.2928 22.9853 23.9476 24.1747 25.2146C25.3641 26.4817 26.838 27.1152 28.5963 27.1152C30.3546 27.1152 31.8284 26.4817 33.0179 25.2146C34.2073 23.9476 34.802 22.2928 34.802 20.2501C34.802 18.2332 34.2073 16.5913 33.0179 15.3243C31.8026 14.0314 30.3287 13.385 28.5963 13.385C26.8639 13.385 25.39 14.0314 24.1747 15.3243C22.9853 16.5913 22.3906 18.2332 22.3906 20.2501Z" fill="white"/>
<path d="M3.5683 18.5047V29.7526H0V1.98193H9.46375C11.8685 1.98193 13.9112 2.78351 15.5919 4.38665C17.2985 5.9898 18.1518 7.94202 18.1518 10.2433C18.1518 12.5963 17.2985 14.5615 15.5919 16.1388C13.937 17.7161 11.8943 18.5047 9.46375 18.5047H3.5683ZM3.5683 5.39509V15.0915H9.54132C10.9635 15.0915 12.14 14.6132 13.0708 13.6565C14.0275 12.6998 14.5059 11.562 14.5059 10.2433C14.5059 8.95046 14.0275 7.82567 13.0708 6.86895C12.14 5.88637 10.9635 5.39509 9.54132 5.39509H3.5683Z" fill="white"/>
</svg>
